<?xml version="1.0" encoding="UTF-8" standalone="no"?>
<svg
 xmlns:dc="http://purl.org/dc/elements/1.1/"
 xmlns:cc="http://creativecommons.org/ns#"
 xmlns:rdf="http://www.w3.org/1999/02/22-rdf-syntax-ns#"
 xmlns:svg="http://www.w3.org/2000/svg"
 xmlns="http://www.w3.org/2000/svg"
 id="svg2931"
 version="1.1"
 viewBox="0 0 140 60.000003"
 height="60"
 width="140">
<defs
 id="defs2925" />
<metadata
 id="metadata2928">
<rdf:RDF>
<cc:Work
 rdf:about="">
<dc:format>image/svg+xml</dc:format>
<dc:type
 rdf:resource="http://purl.org/dc/dcmitype/StillImage" />
<dc:title></dc:title>
</cc:Work>
</rdf:RDF>
</metadata>
<g
 transform="translate(0,-1062.5196)"
 id="layer1">
<g
 transform="translate(-41.428571,52.5)"
 id="g3743">
<path
 d="M 53.223641,1029.0316 V 1017.4651 C 53.223641,1016.396 52.351772,1016.0807 51.428571,1015.9886 V 1014.9758 H 58.472775 V 1015.9854 C 57.587869,1016.0677 56.839856,1016.361 56.839856,1017.3795 V 1028.8157 C 56.839856,1032.6861 59.23953,1034.2457 62.476849,1034.2457 68.36155,1034.2457 68.36155,1029.6591 68.36155,1025.4545 V 1020.4922 C 68.36155,1016.9143 68.059249,1016.1312 66.229141,1015.9821 V 1014.9758 H 72.152954 V 1015.9756 C 71.0676,1016.0839 70.300031,1016.6055 70.300031,1018.8911 V 1027.4313 C 70.300031,1032.2657 67.985914,1035.9642 61.84617,1035.9642 56.464219,1035.9642 53.223641,1033.9084 53.223641,1029.0316"
 style="fill:#231f20;fill-rule:evenodd;stroke-width:1.33333325"
 id="path381" />
<path
 d="M 83.875097,1033.0455 V 1017.7992 C 83.875097,1016.5264 83.155602,1016.1092 81.860837,1015.9886 V 1014.8739 C 84.215695,1014.909 86.551813,1014.944 88.920523,1014.944 92.876522,1014.944 95.359309,1014.8968 97.79728,1014.8519 L 97.918689,1018.1813 H 96.795039 C 96.19288,1016.4596 95.082267,1016.198 91.991617,1016.198 H 87.494571 V 1024.1492 H 91.444051 C 93.150305,1024.1492 94.086545,1024.1239 94.375809,1022.7363 H 95.222418 V 1026.7908 H 94.340772 C 94.057211,1025.6484 93.277419,1025.4993 91.444051,1025.4993 H 87.494571 V 1032.2087 C 87.494571,1034.306 88.31266,1034.8405 90.059656,1034.8919 L 90.079211,1035.8852 H 81.860837 V 1034.8568 C 83.155602,1034.7387 83.875097,1034.3223 83.875097,1033.0455"
 style="fill:#231f20;fill-rule:evenodd;stroke-width:1.33333325"
 id="path383" />
<path
 d="M 169.90076,1029.7071 V 1031.0597 L 169.88772,1035.0443 C 167.79932,1035.6081 165.01423,1036.2632 161.99365,1036.2632 155.2273,1036.2632 150.47196,1031.5111 150.47196,1025.6264 150.47196,1018.8976 155.6885,1014.6482 162.28699,1014.6482 163.38782,1014.6482 164.26621,1014.7753 166.24625,1015.0239 166.79055,1015.1127 169.52512,1015.6163 170.11017,1015.7401 L 170.37744,1019.6171 H 168.9963 C 168.0348,1017.7038 166.7107,1015.9944 163.05048,1015.9944 158.46381,1015.9944 154.59011,1018.7704 154.59011,1025.4961 154.59011,1029.4105 156.78037,1034.9204 163.46442,1034.9204 164.518,1034.9204 165.48846,1034.6686 166.44996,1034.2489 166.44996,1033.8701 166.53633,1031.556 166.53633,1031.0084 166.53633,1029.1465 166.32936,1028.3667 164.80807,1028.1149 V 1027.0744 H 171.37724 V 1028.0514 C 170.20632,1028.1597 169.90076,1028.5452 169.90076,1029.7071"
 style="fill:#231f20;fill-rule:evenodd;stroke-width:1.33333325"
 id="path385" />
<path
 d="M 141.40697,1029.7006 C 140.71926,1030.4291 138.25929,1032.5647 137.4412,1032.5647 137.1226,1032.5647 136.70866,1032.3903 136.70866,1032.0237 136.70866,1031.5209 137.1226,1030.6108 137.34831,1029.8815 L 140.98978,1019.2251 C 141.21875,1018.5822 141.44853,1017.7202 141.44853,1016.9942 141.44853,1015.9919 141.03785,1015.129 139.62738,1015.129 135.29901,1015.129 128.46829,1022.7778 126.00751,1025.8741 H 125.91869 L 128.10243,1019.085 C 128.37622,1018.2669 128.60192,1017.3567 128.60192,1016.6315 128.60192,1015.7621 127.96554,1015.129 126.55507,1015.129 122.50048,1015.129 115.75857,1022.6376 113.57564,1025.7821 H 113.48275 L 115.85146,1018.9073 C 116.0291,1018.3533 116.35422,1017.4936 116.35422,1016.7171 116.35422,1015.855 115.89872,1015.129 114.80359,1015.129 111.79606,1015.129 108.60682,1018.7704 106.87856,1020.9061 106.87856,1020.9061 106.43285,1021.4505 106.78567,1021.7495 107.19064,1022.0966 107.56628,1021.7299 107.56628,1021.7299 L 108.79422,1020.3618 C 109.61231,1019.5438 110.48174,1018.7704 111.43346,1018.7704 111.98102,1018.7704 112.16192,1019.1779 112.16192,1019.6806 112.16192,1020.088 112.02828,1020.5427 111.98102,1020.8165 L 107.24116,1035.1428 C 107.13605,1035.6619 108.10406,1035.9422 108.562,1035.9422 109.71743,1035.9422 110.24625,1035.6016 110.38314,1035.2325 L 111.20368,1032.8418 C 112.4357,1029.3787 114.39047,1026.2408 116.90178,1023.5478 118.35951,1021.9565 121.09001,1018.7704 123.54753,1018.7704 124.18717,1018.7704 124.41288,1019.2732 124.41288,1019.9031 124.41288,1021.0903 123.77976,1022.8218 123.63961,1023.2773 L 119.65428,1035.1592 C 119.57198,1035.5348 119.96962,1036.0538 121.20815,1036.0595 122.34403,1036.0595 122.66263,1035.6619 122.79952,1035.248 L 123.54753,1033.386 C 124.8203,1030.108 126.1004,1027.7426 128.23606,1025.1009 129.69705,1023.3221 133.84128,1018.7256 136.21243,1018.7256 136.70866,1018.7256 137.25949,1019.085 137.25949,1019.8142 137.25949,1020.2698 136.98571,1021.043 136.76,1021.6859 L 133.07045,1032.2535 C 132.74615,1033.1636 132.51718,1033.8888 132.51718,1034.3948 132.51718,1035.5731 133.34098,1035.9389 134.20714,1035.9389 136.70866,1035.9389 138.85086,1033.8888 140.6337,1031.9316 L 142.0401,1030.3818 C 142.0401,1030.3818 142.43448,1029.9679 142.04336,1029.6427 141.71253,1029.3697 141.40697,1029.7006 141.40697,1029.7006"
 style="fill:#cf181f;fill-rule:evenodd;stroke-width:1.33333325"
 id="path387" />
<path
 d="M 107.5182,1041.8847 H 139.013 V 1049.479 H 107.5182 Z"
 style="fill:#cf181f;stroke-width:1.33333325"
 id="path389" />
<path
 d="M 110.02299,1058.407 C 109.8095,1058.6043 109.46646,1058.7509 108.95719,1058.7509 108.31429,1058.7509 107.90932,1058.5374 107.70887,1058.2351 107.58502,1058.0412 107.55324,1057.8562 107.55324,1057.4904 V 1055.173 H 108.29473 V 1057.3787 C 108.29473,1057.6175 108.30777,1057.7707 108.35177,1057.8627 108.44792,1058.0477 108.65733,1058.1561 108.94416,1058.1561 109.17638,1058.1561 109.36134,1058.0893 109.45342,1057.9678 109.5455,1057.8562 109.58706,1057.7519 109.58706,1057.3983 V 1055.173 H 110.32855 V 1057.4651 C 110.32855,1058.0094 110.24869,1058.1936 110.02299,1058.407"
 style="fill:#231f20;stroke-width:1.33333325"
 id="path391" />
<path
 d="M 113.42897,1058.6841 112.57259,1057.0609 C 112.38844,1056.7171 112.19369,1056.3064 112.14317,1056.1598 112.1554,1056.3798 112.16192,1056.7904 112.16844,1057.1465 L 112.19369,1058.6841 H 111.48724 V 1055.173 H 112.30207 L 113.18371,1056.7651 C 113.36868,1057.096 113.49579,1057.3983 113.56261,1057.58 113.54631,1057.3918 113.50801,1057.0096 113.50801,1056.6633 L 113.49579,1055.173 H 114.18351 V 1058.6841 H 113.42897"
 style="fill:#231f20;stroke-width:1.33333325"
 id="path393" />
<path
 d="M 115.36093,1055.173 H 116.11873 V 1058.6841 H 115.36093 Z"
 style="fill:#231f20;stroke-width:1.33333325"
 id="path395" />
<path
 d="M 118.82071,1058.7061 H 118.16476 L 116.81867,1055.173 H 117.62046 L 118.26336,1056.8956 C 118.37499,1057.1946 118.46707,1057.5319 118.5021,1057.6558 118.5404,1057.5189 118.61374,1057.2011 118.73515,1056.902 L 119.42857,1055.173 H 120.19288 L 118.82071,1058.7061"
 style="fill:#231f20;stroke-width:1.33333325"
 id="path397" />
<path
 d="M 120.77467,1058.6841 V 1055.173 H 122.98693 L 122.88182,1055.7491 H 121.50068 V 1056.5582 H 122.65611 V 1057.1408 H 121.51046 V 1058.0762 H 123.03501 V 1058.6841 H 120.77467"
 style="fill:#231f20;stroke-width:1.33333325"
 id="path399" />
<path
 d="M 124.76978,1055.7303 V 1056.6983 H 125.08511 C 125.39068,1056.6983 125.56831,1056.6633 125.68972,1056.5704 125.78831,1056.4914 125.84209,1056.37 125.84209,1056.2046 125.84209,1055.9943 125.7435,1055.842 125.54305,1055.7817 125.43142,1055.7491 125.29779,1055.7303 125.11934,1055.7303 Z M 125.95373,1058.6841 125.60987,1058.121 C 125.25949,1057.5449 125.13889,1057.4138 125.02075,1057.3062 124.96045,1057.2516 124.86185,1057.2198 124.76978,1057.2198 V 1058.6841 H 124.04703 V 1055.173 H 125.23097 C 125.69624,1055.173 126.02054,1055.2341 126.24055,1055.4182 126.47847,1055.6154 126.60314,1055.8892 126.60314,1056.198 126.60314,1056.7423 126.23402,1057.1343 125.73372,1057.1816 125.78179,1057.2133 125.84209,1057.2745 125.89669,1057.3469 126.00751,1057.4904 126.19247,1057.7389 126.35136,1057.9776 L 126.83537,1058.6841 H 125.95373"
 style="fill:#231f20;stroke-width:1.33333325"
 id="path401" />
<path
 d="M 129.59194,1058.5537 C 129.33364,1058.6841 129.00934,1058.7639 128.63044,1058.7639 128.18473,1058.7639 127.74227,1058.6588 127.3316,1058.4551 L 127.59642,1057.8913 C 127.96228,1058.0665 128.28006,1058.1683 128.672,1058.1683 128.87571,1058.1683 129.02237,1058.1333 129.14623,1058.0762 129.2986,1058.0029 129.38497,1057.8823 129.38497,1057.7226 129.38497,1057.5001 129.21957,1057.3535 128.82763,1057.2516 L 128.35992,1057.1343 C 128.00628,1057.0479 127.76183,1056.8825 127.62494,1056.6633 127.52309,1056.5036 127.47827,1056.3382 127.47827,1056.1475 127.47827,1055.5169 128.04132,1055.0687 128.85045,1055.0687 129.31164,1055.0687 129.83069,1055.2056 130.14847,1055.4248 L 129.80461,1055.934 C 129.48683,1055.7556 129.16823,1055.6635 128.86918,1055.6635 128.51555,1055.6635 128.28006,1055.8167 128.28006,1056.0611 128.28006,1056.2591 128.39822,1056.37 128.75429,1056.4596 L 129.22608,1056.5704 C 129.51861,1056.6438 129.78261,1056.7709 129.94802,1056.9371 130.11343,1057.1025 130.20958,1057.3249 130.20958,1057.5857 130.20958,1057.9964 129.98306,1058.3533 129.59194,1058.5537"
 style="fill:#231f20;stroke-width:1.33333325"
 id="path403" />
<path
 d="M 131.17353,1055.173 H 131.92806 V 1058.6841 H 131.17353 Z"
 style="fill:#231f20;stroke-width:1.33333325"
 id="path405" />
<path
 d="M 134.91685,1056.0742 C 134.75796,1055.8289 134.54773,1055.7303 134.21366,1055.7303 H 133.83802 V 1058.108 H 134.29922 C 134.40106,1058.108 134.5127,1058.1015 134.70337,1058.0094 134.88507,1057.9174 135.12382,1057.6623 135.12382,1056.9941 135.12382,1056.5835 135.05701,1056.2934 134.91685,1056.0742 Z M 134.84352,1055.2659 C 135.44813,1055.45 135.93213,1055.8892 135.93213,1056.9371 135.93213,1058.0225 135.26723,1058.5122 134.80522,1058.6205 134.55426,1058.6776 134.38884,1058.6841 134.07677,1058.6841 H 133.09897 V 1055.173 H 133.88202 C 134.23566,1055.173 134.56648,1055.1795 134.84352,1055.2659"
 style="fill:#231f20;stroke-width:1.33333325"
 id="path407" />
<path
 d="M 137.99773,1055.842 C 137.95617,1056.0424 137.62535,1057.0675 137.56831,1057.2801 H 138.41492 C 138.3481,1057.0544 138.02951,1056.0424 137.99773,1055.842 Z M 138.88589,1058.6841 138.58033,1057.844 H 137.38009 L 137.08104,1058.6841 H 136.32081 L 137.62535,1055.1608 H 138.42144 L 139.67546,1058.6841 H 138.88589"
 style="fill:#231f20;stroke-width:1.33333325"
 id="path409" />
<path
 d="M 142.14521,1056.0742 C 141.98632,1055.8289 141.77283,1055.7303 141.44201,1055.7303 H 141.06312 V 1058.108 H 141.52757 C 141.62616,1058.108 141.74105,1058.1015 141.93172,1058.0094 142.11017,1057.9174 142.34892,1057.6623 142.34892,1056.9941 142.34892,1056.5835 142.2821,1056.2934 142.14521,1056.0742 Z M 142.07187,1055.2659 C 142.67322,1055.45 143.15723,1055.8892 143.15723,1056.9371 143.15723,1058.0225 142.49559,1058.5122 142.03032,1058.6205 141.77935,1058.6776 141.61394,1058.6841 141.30186,1058.6841 H 140.32814 V 1055.173 H 141.11119 C 141.46075,1055.173 141.79158,1055.1795 142.07187,1055.2659"
 style="fill:#231f20;stroke-width:1.33333325"
 id="path411" />
<path
 d="M 144.13177,1058.6841 V 1055.173 H 146.34322 L 146.2381,1055.7491 H 144.86022 V 1056.5582 H 146.01239 V 1057.1408 H 144.86674 V 1058.0762 H 146.39129 V 1058.6841 H 144.13177"
 style="fill:#231f20;stroke-width:1.33333325"
 id="path413" />
<path
 d="M 150.93315,1055.7433 H 149.64735 V 1056.5639 H 150.68789 V 1057.1465 H 149.64735 V 1058.6841 H 148.91889 V 1055.173 H 151.02523 L 150.93315,1055.7433"
 style="fill:#231f20;stroke-width:1.33333325"
 id="path415" />
<path
 d="M 151.8148,1058.6841 V 1055.173 H 154.02706 L 153.92195,1055.7491 H 152.54407 V 1056.5582 H 153.69624 V 1057.1408 H 152.55059 V 1058.0762 H 154.07514 V 1058.6841 H 151.8148"
 style="fill:#231f20;stroke-width:1.33333325"
 id="path417" />
<path
 d="M 156.89526,1056.0742 C 156.73555,1055.8289 156.52533,1055.7303 156.19451,1055.7303 H 155.81561 V 1058.108 H 156.28088 C 156.37947,1058.108 156.49029,1058.1015 156.68503,1058.0094 156.86348,1057.9174 157.10142,1057.6623 157.10142,1056.9941 157.10142,1056.5835 157.0346,1056.2934 156.89526,1056.0742 Z M 156.82519,1055.2659 C 157.42653,1055.45 157.91054,1055.8892 157.91054,1056.9371 157.91054,1058.0225 157.24808,1058.5122 156.78363,1058.6205 156.53185,1058.6776 156.36644,1058.6841 156.05435,1058.6841 H 155.08064 V 1055.173 H 155.86368 C 156.21407,1055.173 156.54488,1055.1795 156.82519,1055.2659"
 style="fill:#231f20;stroke-width:1.33333325"
 id="path419" />
<path
 d="M 158.87448,1058.6841 V 1055.173 H 161.09 L 160.98163,1055.7491 H 159.60375 V 1056.5582 H 160.75918 V 1057.1408 H 159.61353 V 1058.0762 H 161.13482 V 1058.6841 H 158.87448"
 style="fill:#231f20;stroke-width:1.33333325"
 id="path421" />
<path
 d="M 162.86308,1055.7303 V 1056.6983 H 163.18086 C 163.48642,1056.6983 163.66487,1056.6633 163.78628,1056.5704 163.88487,1056.4914 163.93865,1056.37 163.93865,1056.2046 163.93865,1055.9943 163.8368,1055.842 163.63961,1055.7817 163.52472,1055.7491 163.39434,1055.7303 163.2159,1055.7303 Z M 164.05028,1058.6841 163.70643,1058.121 C 163.35279,1057.5449 163.23545,1057.4138 163.11404,1057.3062 163.05701,1057.2516 162.95515,1057.2198 162.86308,1057.2198 V 1058.6841 H 162.14032 V 1055.173 H 163.32753 C 163.79198,1055.173 164.1171,1055.2341 164.33384,1055.4182 164.57178,1055.6154 164.6997,1055.8892 164.6997,1056.198 164.6997,1056.7423 164.33058,1057.1343 163.83028,1057.1816 163.87835,1057.2133 163.93865,1057.2745 163.98999,1057.3469 164.10406,1057.4904 164.28903,1057.7389 164.44792,1057.9776 L 164.93193,1058.6841 H 164.05028"
 style="fill:#231f20;stroke-width:1.33333325"
 id="path423" />
<path
 d="M 166.92419,1055.842 C 166.88589,1056.0424 166.55507,1057.0675 166.49477,1057.2801 H 167.34138 C 167.27783,1057.0544 166.95922,1056.0424 166.92419,1055.842 Z M 167.81235,1058.6841 167.50679,1057.844 H 166.30654 L 166.01076,1058.6841 H 165.24727 L 166.55507,1055.1608 H 167.3479 L 168.60192,1058.6841 H 167.81235"
 style="fill:#231f20;stroke-width:1.33333325"
 id="path425" />
<path
 d="M 171.29168,1058.6841 H 169.26356 V 1055.173 H 169.99936 V 1058.0893 H 171.42857 L 171.29168,1058.6841"
 style="fill:#231f20;stroke-width:1.33333325"
 id="path427" />
<path
 d="M 109.38661,1062.7012 C 109.22772,1062.4527 109.01749,1062.3541 108.68666,1062.3541 H 108.30777 V 1064.735 H 108.77222 C 108.87082,1064.735 108.98245,1064.7253 109.17638,1064.6364 109.35483,1064.5411 109.59357,1064.2893 109.59357,1063.6211 109.59357,1063.2105 109.52676,1062.9171 109.38661,1062.7012 Z M 109.31327,1061.8929 C 109.91787,1062.077 110.40188,1062.513 110.40188,1063.56 110.40188,1064.6486 109.74024,1065.1392 109.27497,1065.2443 109.024,1065.3046 108.85778,1065.3111 108.54652,1065.3111 H 107.57198 V 1061.7968 H 108.35177 C 108.70541,1061.7968 109.03623,1061.8032 109.31327,1061.8929"
 style="fill:#231f20;stroke-width:1.33333325"
 id="path429" />
<path
 d="M 111.37235,1065.3111 V 1061.7968 H 113.58787 L 113.4795,1062.3728 H 112.10162 V 1063.1852 H 113.25705 V 1063.767 H 112.11139 V 1064.7 H 113.63268 V 1065.3111 H 111.37235"
 style="fill:#231f20;stroke-width:1.33333325"
 id="path431" />
<path
 d="M 119.31123,1065.3111 119.15805,1063.3441 C 119.1393,1063.1054 119.12627,1062.7998 119.11975,1062.6597 119.09123,1062.7802 119.00567,1063.0826 118.93233,1063.3213 L 118.31143,1065.3111 H 117.68157 L 117.08919,1063.3563 C 117.02563,1063.1371 116.94578,1062.7802 116.91074,1062.6181 116.91074,1062.7517 116.892,1063.0956 116.87245,1063.3563 L 116.72659,1065.3111 H 115.99732 L 116.36644,1061.7968 H 117.3149 L 117.8535,1063.5983 C 117.92602,1063.8436 117.99284,1064.1492 118.01891,1064.2828 118.03114,1064.1589 118.11099,1063.8248 118.18432,1063.595 L 118.72863,1061.7968 H 119.68361 L 120.03317,1065.3111 H 119.31123"
 style="fill:#231f20;stroke-width:1.33333325"
 id="path433" />
<path
 d="M 121.03948,1061.7968 H 121.79402 V 1065.3103 H 121.03948 Z"
 style="fill:#231f20;stroke-width:1.33333325"
 id="path435" />
<path
 d="M 124.92215,1065.3111 124.06658,1063.6879 C 123.88161,1063.3441 123.68769,1062.9301 123.63635,1062.7835 123.64939,1063.0035 123.65591,1063.4142 123.66161,1063.7735 L 123.68769,1065.3111 H 122.98123 V 1061.7968 H 123.79606 L 124.6777,1063.3889 C 124.86185,1063.7197 124.98571,1064.0253 125.05252,1064.2037 125.0403,1064.0188 125.002,1063.6334 125.002,1063.2895 L 124.98571,1061.7968 H 125.67668 V 1065.3111 H 124.92215"
 style="fill:#231f20;stroke-width:1.33333325"
 id="path437" />
<path
 d="M 128.0128,1062.469 C 127.9745,1062.6661 127.64368,1063.6937 127.58338,1063.9039 H 128.43325 C 128.36644,1063.6815 128.04784,1062.6661 128.0128,1062.469 Z M 128.90096,1065.3111 128.59867,1064.4677 H 127.39842 L 127.09937,1065.3111 H 126.33914 L 127.64368,1061.7845 H 128.43977 L 129.69053,1065.3111 H 128.90096"
 style="fill:#231f20;stroke-width:1.33333325"
 id="path439" />
<path
 d="M 132.34851,1065.1775 C 132.08695,1065.3111 131.76265,1065.391 131.38701,1065.391 130.9413,1065.391 130.49885,1065.2858 130.08817,1065.0789 L 130.35218,1064.515 C 130.71559,1064.6935 131.03338,1064.7921 131.42531,1064.7921 131.63228,1064.7921 131.77487,1064.7603 131.9028,1064.7 132.05517,1064.6266 132.14154,1064.5085 132.14154,1064.3496 132.14154,1064.1239 131.97613,1063.9772 131.5842,1063.8786 L 131.11323,1063.7613 C 130.76285,1063.6717 130.5184,1063.5095 130.37825,1063.2895 130.27966,1063.1306 130.23158,1062.9652 130.23158,1062.7713 130.23158,1062.1406 130.79463,1061.6916 131.60376,1061.6916 132.06821,1061.6916 132.58725,1061.8318 132.90178,1062.0518 L 132.55792,1062.561 C 132.24014,1062.3793 131.92154,1062.2872 131.62576,1062.2872 131.27212,1062.2872 131.03338,1062.4397 131.03338,1062.6849 131.03338,1062.8854 131.15478,1062.997 131.51087,1063.0826 L 131.98184,1063.1942 C 132.27518,1063.2675 132.53918,1063.3946 132.70459,1063.56 132.87,1063.7263 132.96289,1063.9519 132.96289,1064.2095 132.96289,1064.6201 132.73637,1064.9803 132.34851,1065.1775"
 style="fill:#231f20;stroke-width:1.33333325"
 id="path441" />
<path
 d="M 136.93193,1065.3494 C 136.33955,1065.3494 135.92887,1065.1709 135.61109,1064.8271 135.31449,1064.5028 135.17434,1064.1044 135.17434,1063.5666 135.17434,1062.8666 135.41308,1062.3891 135.87836,1062.0518 136.1611,1061.8448 136.50496,1061.7462 136.91563,1061.7462 137.37438,1061.7462 137.78424,1061.8766 138.13788,1062.1341 L 137.75898,1062.5798 C 137.5015,1062.4079 137.26275,1062.306 136.93193,1062.306 136.49844,1062.306 136.23443,1062.469 136.11058,1062.8063 136.02747,1063.0157 135.98917,1063.2838 135.98917,1063.6146 135.98917,1064.1655 136.1171,1064.4963 136.37459,1064.6682 136.53348,1064.7733 136.73718,1064.8271 136.96371,1064.8271 137.14134,1064.8271 137.29453,1064.7855 137.42816,1064.735 V 1063.9324 H 136.804 L 136.69889,1063.3563 H 138.18269 V 1065.0471 C 137.79076,1065.2508 137.38661,1065.3494 136.93193,1065.3494"
 style="fill:#231f20;stroke-width:1.33333325"
 id="path443" />
<path
 d="M 139.20775,1065.3111 V 1061.7968 H 141.42246 L 141.3149,1062.3728 H 139.93621 V 1063.1852 H 141.09163 V 1063.767 H 139.94599 V 1064.7 H 141.46727 V 1065.3111 H 139.20775"
 style="fill:#231f20;stroke-width:1.33333325"
 id="path445" />
<path
 d="M 143.2053,1062.3541 V 1063.3213 H 143.52064 C 143.8262,1063.3213 144.00384,1063.2895 144.12525,1063.1942 144.22384,1063.1176 144.27762,1062.997 144.27762,1062.8316 144.27762,1062.6181 144.17577,1062.469 143.97858,1062.4079 143.86695,1062.3728 143.73331,1062.3541 143.55568,1062.3541 Z M 144.38925,1065.3111 144.0454,1064.7473 C 143.69176,1064.1712 143.57442,1064.0375 143.45627,1063.9324 143.39597,1063.8786 143.29738,1063.8436 143.2053,1063.8436 V 1065.3111 H 142.47929 V 1061.7968 H 143.6665 C 144.13177,1061.7968 144.45607,1061.8579 144.67526,1062.042 144.914,1062.2425 145.03867,1062.513 145.03867,1062.825 145.03867,1063.3694 144.66955,1063.7613 144.16925,1063.8053 144.21732,1063.8371 144.27762,1063.8974 144.32896,1063.9707 144.44303,1064.1174 144.628,1064.3626 144.78689,1064.6014 L 145.2709,1065.3111 H 144.38925"
 style="fill:#231f20;stroke-width:1.33333325"
 id="path447" />
<path
 d="M 147.26316,1062.469 C 147.22486,1062.6661 146.89404,1063.6937 146.83374,1063.9039 H 147.68361 C 147.6168,1063.6815 147.29819,1062.6661 147.26316,1062.469 Z M 148.15132,1065.3111 147.84576,1064.4677 H 146.64878 L 146.34973,1065.3111 H 145.58949 L 146.89404,1061.7845 H 147.69013 L 148.94089,1065.3111 H 148.15132"
 style="fill:#231f20;stroke-width:1.33333325"
 id="path449" />
<path
 d="M 149.59683,1061.7968 H 150.35136 V 1065.3103 H 149.59683 Z"
 style="fill:#231f20;stroke-width:1.33333325"
 id="path451" />
<path
 d="M 153.45097,1065.1775 C 153.19349,1065.3111 152.86837,1065.391 152.48948,1065.391 152.04702,1065.391 151.60131,1065.2858 151.19145,1065.0789 L 151.45871,1064.515 C 151.82132,1064.6935 152.13991,1064.7921 152.53103,1064.7921 152.73474,1064.7921 152.88141,1064.7603 153.00852,1064.7 153.16171,1064.6266 153.24727,1064.5085 153.24727,1064.3496 153.24727,1064.1239 153.08186,1063.9772 152.68992,1063.8786 L 152.21895,1063.7613 C 151.86939,1063.6717 151.62413,1063.5095 151.48398,1063.2895 151.38538,1063.1306 151.33731,1062.9652 151.33731,1062.7713 151.33731,1062.1406 151.90117,1061.6916 152.70948,1061.6916 153.17393,1061.6916 153.68972,1061.8318 154.00832,1062.0518 L 153.66446,1062.561 C 153.34586,1062.3793 153.02726,1062.2872 152.72822,1062.2872 152.37866,1062.2872 152.13991,1062.4397 152.13991,1062.6849 152.13991,1062.8854 152.25725,1062.997 152.6174,1063.0826 L 153.08838,1063.1942 C 153.37764,1063.2675 153.64491,1063.3946 153.81031,1063.56 153.97654,1063.7263 154.06862,1063.9519 154.06862,1064.2095 154.06862,1064.6201 153.84209,1064.9803 153.45097,1065.1775"
 style="fill:#231f20;stroke-width:1.33333325"
 id="path453" />
</g>
</g>
</svg>
